<?xml version="1.0" encoding="UTF-8"?>
<!-- Generated by Pixelmator Pro 3.6.14 -->
<svg width="2000" height="2000" viewBox="0 0 2000 2000" xmlns="http://www.w3.org/2000/svg">
    <path id="Rectangle" fill="#255a91" fill-rule="evenodd" stroke="#000000" stroke-width="2" stroke-linecap="round" stroke-linejoin="round" d="M 0 2000 L 2000 2000 L 2000 0 L 0 0 Z"/>
    <text id="Unfare-SF" xml:space="preserve" x="355" y="1401" font-family="Helvetica Neue" font-size="273" font-weight="700" fill="#ffffff">Unfare SF</text>
    <path id="Shape-copy" fill="#ffffff" fill-rule="evenodd" stroke="none" d="M 563.956787 1070.501953 C 554.781616 1071.708374 538.090942 1070.64624 526.866272 1068.141846 C 514.085632 1065.290161 500.3526 1057.483032 490.122894 1047.253296 C 480.175079 1037.30542 470.915985 1021.247437 466.442963 1006.185059 C 462.403198 992.581787 459.106567 966.291016 459.117126 947.761108 C 459.127686 929.231323 462.321381 894.432251 466.214294 870.429932 C 470.107178 846.427612 475.460449 821.086792 478.110413 814.116821 C 481.732697 804.589478 492.687866 796.909424 522.251038 783.172119 C 543.878479 773.122437 585.16687 754.624878 614.003052 742.066528 C 642.839233 729.508057 675.732971 716.106079 687.100342 712.28418 C 703.164124 706.883301 709.509949 701.509766 715.586914 688.161987 C 719.887207 678.716675 727.324097 665.727295 732.113342 659.296875 C 738.580505 650.613647 740.053223 643.059448 737.836609 629.939697 C 735.800598 617.88855 737.348572 607.446655 742.707275 597.084106 C 747.027649 588.72937 752.154419 571.912354 754.100159 559.712891 C 756.045837 547.513306 762.236633 528.952637 767.857361 518.466675 C 773.478088 507.980835 779.340942 493.228271 780.886047 485.68335 C 782.431091 478.138428 789.854919 465.805664 797.383423 458.2771 C 808.349548 447.311035 815.283447 444.588867 832.251038 444.588867 C 843.89978 444.588867 864.173035 440.124634 877.302673 434.668091 C 893.667603 427.867188 906.144836 418.114136 916.97876 403.654785 C 932.782654 382.5625 932.782654 382.5625 978.344177 385.19519 C 1003.403015 386.643188 1032.930298 388.920288 1043.960205 390.255493 C 1058.020386 391.957275 1070.816406 398.303467 1086.769653 411.48645 C 1108.19458 429.190918 1111.366943 430.290039 1141.045776 430.290039 C 1165.344116 430.290039 1174.345825 432.255493 1180.329712 438.867676 C 1184.599243 443.585449 1191.377075 456.755371 1195.391846 468.134033 C 1199.406494 479.512817 1207.30542 496.288696 1212.944946 505.413818 C 1218.584595 514.538696 1224.646484 529.921997 1226.416016 539.598755 C 1228.185547 549.275635 1234.585571 563.891235 1240.638306 572.078003 C 1249.346924 583.857178 1251.107056 590.959106 1249.074097 606.116089 C 1247.250488 619.712524 1249.130615 630.167603 1255.554688 642.153809 C 1260.536987 651.449463 1264.60437 668.519775 1264.60437 680.133789 C 1264.60437 701.229492 1264.60437 701.229492 1313.458984 716.204468 C 1340.329224 724.440674 1402.529419 743.981323 1451.682007 759.628174 C 1541.050293 788.076782 1541.050293 788.076782 1541.050293 811.229736 C 1541.050293 823.963867 1535.664673 855.529785 1529.082153 881.376099 C 1522.499756 907.222412 1512.602051 941.238403 1507.087524 956.967285 C 1501.572754 972.696045 1490.876831 1001.771362 1483.318604 1021.578918 C 1475.760254 1041.386475 1466.78833 1061.405518 1463.380981 1066.06543 C 1457.669678 1073.875977 1453.078979 1071.620605 1404.630127 1037.200928 C 1375.724609 1016.66571 1296.467896 962.949951 1228.503906 917.832642 C 1104.932983 835.801392 1104.932983 835.801392 1030.30603 834.843994 C 955.679138 833.886719 955.679138 833.886719 889.699951 875.591553 C 853.411377 898.529175 781.559692 945.042114 730.029602 978.953552 C 678.499512 1012.86499 623.806091 1046.842773 608.488708 1054.459717 C 593.171326 1062.07666 573.131958 1069.295654 563.956787 1070.501953 Z M 543.8797 1059.442871 C 563.361633 1059.442871 576.367737 1055.287598 607.850342 1039.004639 C 629.584595 1027.763428 688.119202 992.697937 737.927124 961.080933 C 787.735046 929.464111 853.873474 887.247803 884.901489 867.266846 C 918.928101 845.35498 948.246155 829.92688 958.779297 828.390015 C 968.384094 826.988525 989.111633 823.675903 1004.840454 821.028564 C 1022.011292 818.13855 1052.483398 806.648071 1081.10144 792.271973 C 1107.316162 779.103271 1157.719849 748.424805 1193.109741 724.0979 C 1238.581055 692.840942 1257.229614 677.329956 1256.687012 671.217651 C 1256.264648 666.460327 1251.503296 658.152466 1246.106323 652.755371 C 1236.490967 643.140137 1235.767456 643.108398 1210.155396 651.181885 C 1195.779541 655.713501 1173.194092 666.704712 1159.965698 675.606812 C 1146.737183 684.508911 1135.91394 689.955811 1135.91394 687.710938 C 1135.91394 685.466187 1141.812256 678.937866 1149.021362 673.203735 C 1156.230347 667.469604 1179.287476 653.800537 1200.259155 642.828125 C 1234.942993 624.681519 1238.526733 621.470215 1239.906494 607.300049 C 1240.740723 598.732056 1238.869385 588.644653 1235.748047 584.883667 C 1232.626709 581.122681 1222.877563 578.045654 1214.083374 578.045654 C 1205.28894 578.045654 1183.715942 583.457275 1166.143188 590.071777 C 1148.570557 596.686157 1131.899048 601.256836 1129.095459 600.22876 C 1126.291992 599.200806 1142.931641 589.23584 1166.072388 578.084595 C 1193.556396 564.84021 1209.914307 553.929443 1213.244507 546.620483 C 1217.063354 538.239136 1216.62915 530.911377 1211.514282 517.416626 C 1206.270264 503.580933 1201.724976 499.05542 1191.922119 497.910156 C 1184.901855 497.089722 1168.891846 501.109741 1156.34436 506.84314 C 1143.796875 512.57666 1123.080078 521.381958 1110.306763 526.410645 C 1097.533569 531.439331 1084.664551 534.715332 1081.708862 533.690674 C 1078.753296 532.665894 1098.390869 520.7229 1125.3479 507.150513 C 1159.714355 489.8479 1176.016846 478.839111 1179.902588 470.310669 C 1183.822021 461.708496 1183.981567 455.813965 1180.447876 450.176636 C 1177.283813 445.129272 1167.763428 441.702393 1154.490967 440.833374 C 1142.962891 440.078491 1112.082397 444.88147 1085.867676 451.506348 C 1059.653076 458.13147 1026.407959 467.973389 1011.989929 473.377197 C 997.571838 478.781006 981.65271 486.281006 976.614075 490.043823 C 968.566589 496.053833 968.1026 499.002197 972.79718 514.298584 C 977.329407 529.065674 976.729736 534.478638 968.850952 549.922363 C 963.409424 560.588867 959.560547 577.740723 959.560547 591.323853 C 959.560547 609.897705 957.188416 616.74292 947.644714 625.70874 C 938.142517 634.63562 935.728943 641.539673 935.728943 659.793823 C 935.728943 679.002319 933.795898 683.951294 923.712585 690.558105 C 914.700989 696.462646 906.656067 697.580688 891.540039 695.028931 C 880.454041 693.157471 866.080566 691.272583 859.598938 690.840088 C 851.224548 690.281494 847.305908 692.812622 846.058228 699.586548 C 845.09259 704.829468 841.230713 713.944946 837.476379 719.843384 C 832.128784 728.244873 826.209717 730.567505 810.146729 730.567505 C 798.86969 730.567505 774.789734 725.582031 756.63562 719.488647 C 738.481506 713.395386 719.338501 709.71167 714.09552 711.302856 C 708.8526 712.894043 692.145142 719.833496 676.967712 726.723877 C 661.790344 733.61438 630.690125 747.33374 607.856201 757.211304 C 585.022278 767.088989 549.643616 783.427124 529.237061 793.518311 C 506.975128 804.5271 490.252136 816.10144 487.429047 822.45459 C 484.841248 828.27832 479.590179 848.057007 475.76001 866.407349 C 471.929871 884.75769 468.758881 916.516724 468.713348 936.98291 C 468.667816 957.449341 471.107971 984.032959 474.135834 996.0578 C 477.764893 1010.470032 486.420502 1024.996582 499.533539 1038.682007 C 517.950562 1057.903076 521.239624 1059.442871 543.8797 1059.442871 Z M 1454.515259 1048.856934 C 1458.144043 1048.125488 1467.020264 1032.513306 1474.240112 1014.162964 C 1481.459961 995.812622 1497.441895 950.97229 1509.755127 914.517578 C 1522.068604 878.062866 1533.372314 837.858154 1534.874512 825.173706 C 1537.606079 802.110962 1537.606079 802.110962 1516.68811 793.039063 C 1505.183472 788.049438 1465.742676 774.249756 1429.042114 762.373169 C 1392.341431 750.49646 1335.839478 732.95874 1303.482056 723.400269 C 1244.650391 706.02124 1244.650391 706.02124 1193.856934 739.170776 C 1165.920532 757.402954 1127.513428 782.186157 1108.50769 794.244507 C 1089.502075 806.302856 1073.951904 818.637573 1073.951904 821.654907 C 1073.951904 825.325195 1079.823608 826.18811 1091.691528 824.262329 C 1101.448242 822.678955 1119.982422 815.909302 1132.878418 809.218628 C 1145.774414 802.527832 1157.261963 797.989868 1158.406128 799.134033 C 1159.550415 800.27832 1152.890259 809.622681 1143.605835 819.899414 C 1126.725098 838.584473 1126.725098 838.584473 1200.350342 887.174194 C 1240.84436 913.898438 1313.112549 961.509033 1360.946533 992.975403 C 1408.78064 1024.44165 1450.886353 1049.588379 1454.515259 1048.856934 Z M 807.889709 720.486694 C 814.911499 720.78833 824.022888 717.668701 828.137085 713.554443 C 833.49939 708.192017 834.331726 703.671387 831.076538 697.588989 C 828.578918 692.922241 813.427979 683.419434 797.407654 676.471558 C 781.387329 669.523804 762.249268 663.839233 754.878662 663.839233 C 747.507996 663.839233 738.905396 666.938477 735.761719 670.726318 C 732.618042 674.51416 730.746704 682.537354 731.603333 688.555298 C 732.535645 695.105347 738.900208 702.264893 747.459717 706.392456 C 755.324097 710.184814 769.265564 714.78418 778.440735 716.613159 C 787.615906 718.442139 800.86792 720.185303 807.889709 720.486694 Z M 904.335144 685.232178 C 909.351074 684.21875 916.506897 680.337646 920.237061 676.607422 C 923.967224 672.877197 926.297852 664.757202 925.416199 658.562866 C 924.370728 651.217407 917.182495 643.651611 904.747925 636.809082 C 894.262085 631.03894 865.488708 619.553955 840.807129 611.286987 C 816.12561 603.02002 788.730408 595.087402 779.928894 593.65918 C 768.498413 591.804321 761.233276 593.499268 754.501343 599.591553 C 749.317688 604.282715 745.076538 612.994873 745.076538 618.952026 C 745.076538 624.90918 750.552002 634.090088 757.244141 639.354126 C 763.936279 644.618164 786.993286 654.817871 808.481934 662.020264 C 829.970581 669.222534 858.276428 677.806274 871.383789 681.095093 C 884.49115 684.383911 899.319214 686.245605 904.335144 685.232178 Z M 924.664307 620.516235 C 932.996887 620.75061 943.308167 617.448608 947.57843 613.178345 C 951.848633 608.908203 954.045349 601.937378 952.4599 597.687866 C 950.874512 593.438354 944.852844 586.264893 939.07843 581.74707 C 933.304016 577.229126 903.913818 563.530273 873.766907 551.304932 C 843.620056 539.07959 809.302612 528.118652 797.505981 526.947388 C 779.246704 525.134277 775.115173 526.375366 769.719543 535.293579 C 766.233582 541.055298 764.626953 550.731934 766.149231 556.797241 C 768.02002 564.250977 777.025208 571.589478 793.935669 579.441162 C 807.695984 585.829956 828.60614 594.650146 840.402771 599.041504 C 852.199402 603.432861 872.575378 609.965088 885.682739 613.557861 C 898.790039 617.150513 916.331787 620.28186 924.664307 620.516235 Z M 931.415527 558.832397 C 938.218262 558.913696 947.481079 554.895264 951.999695 549.902344 C 956.51825 544.909424 961.306885 536.64978 962.641113 531.547607 C 963.975342 526.445435 961.748108 518.952148 957.691772 514.89563 C 953.635376 510.839355 937.716675 506.057983 922.317017 504.270752 C 906.917297 502.483398 890.000854 498.511841 884.725037 495.444946 C 879.449097 492.378174 865.924072 482.898193 854.669312 474.378418 C 842.783447 465.380737 828.558472 458.887817 820.7323 458.887817 C 811.630127 458.887817 804.732483 462.74292 799.473572 470.768921 C 794.614685 478.18457 792.810425 487.118896 794.673096 494.540161 C 796.314392 501.079712 802.605896 509.672729 808.654175 513.635864 C 814.702393 517.598755 842.015076 529.355835 869.348938 539.762817 C 896.682861 550.1698 924.612793 558.750977 931.415527 558.832397 Z M 921.430054 491.909058 C 942.884766 492.156372 951.539307 489.622314 969.09314 477.953125 C 980.889771 470.111084 995.10553 463.685669 1000.683594 463.674561 C 1006.26178 463.66333 1018.594666 460.408203 1028.089844 456.440674 C 1037.585205 452.473389 1045.354126 446.184814 1045.354126 442.466431 C 1045.354126 438.747803 1039.165894 431.299072 1031.602661 425.913452 C 1024.039429 420.527954 1007.77533 411.802612 995.460205 406.523804 C 983.145142 401.244873 965.637634 396.925781 956.554565 396.925781 C 945.659241 396.925781 936.468628 400.600952 929.543518 407.726807 C 923.770325 413.667236 909.395142 424.805298 897.598511 432.477783 C 885.801819 440.150269 873.072754 449.168091 869.311523 452.517212 C 863.597961 457.604736 863.491699 460.510132 868.665955 470.178223 C 872.072083 476.542603 879.439087 483.967651 885.037109 486.678467 C 890.635132 489.389038 907.011963 491.742798 921.430054 491.909058 Z M 1075.2229 439.822632 C 1082.585693 439.822632 1084.00293 437.522217 1081.829834 429.098389 C 1080.308228 423.200195 1073.087402 413.559082 1065.783447 407.673706 C 1058.479492 401.788452 1046.605225 396.962524 1039.39624 396.949585 C 1030.936646 396.934204 1026.288818 399.450317 1026.288818 404.045288 C 1026.288818 407.961182 1035.190063 417.612915 1046.069214 425.493774 C 1056.948364 433.374634 1070.067627 439.822632 1075.2229 439.822632 Z"/>
</svg>
